<?xml version="1.0" encoding="utf-8"?>
<!-- Generator: Adobe Illustrator 24.2.0, SVG Export Plug-In . SVG Version: 6.00 Build 0)  -->
<svg version="1.1" id="圖層_1" xmlns="http://www.w3.org/2000/svg" xmlns:xlink="http://www.w3.org/1999/xlink" x="0px" y="0px"
	 viewBox="0 0 500 500" style="enable-background:new 0 0 500 500;" xml:space="preserve">
<style type="text/css">
	.st0{fill:#FFFFFF;}
	.st1{fill:#FDA371;}
	.st2{fill:#DE7F4E;}
	.st3{fill:#4F2220;}
	.st4{fill:#110303;}
	.st5{fill:#000201;}
	.st6{fill:#DF7F50;}
	.st7{fill:#6AB8B5;}
	.st8{fill:#DE804F;}
	.st9{fill:#FDF8F6;}
	.st10{fill:#FC7B7C;}
	.st11{clip-path:url(#SVGID_2_);}
	.st12{fill:#EB415D;}
	.st13{fill:#0080A0;}
	.st14{fill:#B0223C;}
	.st15{fill:#2B9AB8;}
</style>
<g>
	<circle class="st0" cx="250" cy="249.05" r="233"/>
	<g>
		<path class="st1" d="M206.43,277.47c0,0,3.79,41.67-7.58,54.93L250,425.22l54.93-92.82c0,0-13.26-18.94-9.47-54.93H206.43z"/>
		<path class="st2" d="M208.33,286.94c0,0,23.72,43.57,96.61,45.46c0,0-15.15-28.41-9.47-60.62l-89.03,9.47L208.33,286.94z"/>
		<path class="st3" d="M182.46,229.37c0,0-36.65-69.35-19.6-112.92s75.77-56.83,104.19-53.04c28.41,3.79,60.62,32.2,70.09,60.62
			c9.47,28.41-0.16,102.46-19.03,119.42L182.46,229.37z"/>
		<path class="st4" d="M181.8,171.39c0,0-11.37-71.98,49.25-83.35c0,0-18.94,11.37-13.26,15.15c5.68,3.79,17.05-5.68,17.05-5.68
			s-9.47,18.94,17.05,24.63c26.52,5.68,43.57-13.26,43.57-13.26s28.41,15.15,28.41,73.88L181.8,171.39z"/>
		<path class="st1" d="M193.17,131.61c0,0-11.37,13.26-13.26,66.3s30.31,109.87,73.88,109.87c0,0,49.25,5.68,66.3-75.77
			c17.05-81.46-22.73-113.66-22.73-113.66s-18,16.1-48.3,14.21c-18.4-1.15-24.93-4.4-27.22-6.77c-2.86-2.97-6.58-5.03-10.7-5.18
			C205.51,120.4,198.48,122.44,193.17,131.61z"/>
		<path class="st5" d="M164.76,182.75c0,0-5.44-71.57,38.96-106.82s85-5.93,85-5.93s44.64,23.72,52.22,93.81
			c0.91,8.42-3.54,7.05-3.79,17.05c0,0-7.58-107.98-81.46-109.87c-62.57-1.6-81.2,72.76-87.14,106.08
			C167.47,183.09,166.65,182.75,164.76,182.75z"/>
		<path class="st6" d="M240.53,235.79c0,0,1.89,5.68,13.26,5.68s15.15-3.79,15.15-3.79s-1.89,7.58-15.15,7.58
			C240.53,245.26,240.53,235.79,240.53,235.79z"/>
		<path class="st3" d="M195.07,180.86v11.37h39.78l1.89-13.26C236.74,178.96,219.69,173.28,195.07,180.86z"/>
		<path class="st3" d="M308.72,180.86v11.37h-39.78l-1.89-13.26C267.05,178.96,284.1,173.28,308.72,180.86z"/>
		<g>
			<path class="st7" d="M161.89,178.95c0,0-24.27,12.11-13.88,42.11s30.93,19.91,30.93,19.91L161.89,178.95z"/>
			<path class="st5" d="M162.91,180.1l15.13,59.65c1.29,5.07,6.53,8.05,11.54,6.55h0l-19.84-78.24l0,0
				C164.6,169.59,161.59,174.9,162.91,180.1z"/>
		</g>
		<g>
			<path class="st7" d="M347.38,175.16c0,0,24.27,12.11,13.88,42.11c-10.39,30.01-30.93,19.91-30.93,19.91L347.38,175.16z"/>
			<path class="st5" d="M346.37,176.31l-15.13,59.65c-1.29,5.07-6.53,8.05-11.54,6.55l0,0l19.84-78.24l0,0
				C344.68,165.81,347.69,171.12,346.37,176.31z"/>
		</g>
		<g>
			<path class="st8" d="M231.06,262.14c0,0,27.76-3.27,35.93,0s11.43,6.53,11.43,9.8s-9.8,14.7-22.86,13.06
				C242.49,283.37,232.69,276.84,231.06,262.14z"/>
			<path class="st9" d="M232.69,262.14l4.9,1.63c0,0,11.43,4.9,34.29,1.63v-1.63c0,0-8.62-3.35-16.33-3.27
				C250.23,260.56,239.07,260.98,232.69,262.14z"/>
			<path class="st10" d="M240.4,279.43c0,0,10.25-4.22,20.05-2.59c0,0,6.78,1.65,9.11,4.91c0,0-5.84,4.89-15.64,3.26
				C242.66,283.12,240.4,279.43,240.4,279.43z"/>
		</g>
		<g>
			<path class="st0" d="M198.85,205.48c0,0,5.68-9.47,18.94-9.47s18.94,11.37,18.94,11.37s-7.58,5.68-20.84,5.68
				S198.85,205.48,198.85,205.48z"/>
			<path class="st5" d="M227.42,211.52c1.1-1.75,1.75-3.81,1.75-6.03c0-3.03-1.2-5.78-3.13-7.82c-2.33-0.99-5.06-1.65-8.24-1.65
				c-3,0-5.59,0.5-7.83,1.25c-2.17,2.07-3.54,4.99-3.54,8.22c0,2.49,0.81,4.78,2.17,6.66c2.04,0.56,4.44,0.92,7.31,0.92
				C220.44,213.06,224.29,212.39,227.42,211.52z"/>
			<circle class="st0" cx="214.01" cy="205.48" r="1.89"/>
			<path class="st8" d="M198.85,205.48c0,0,5.68-11.37,17.05-11.37c11.37,0,17.05,3.79,20.84,13.26c0,0-5.68-11.37-20.84-11.37
				C206.43,196.01,198.85,205.48,198.85,205.48z"/>
		</g>
		<g>
			<path class="st0" d="M268.94,205.48c0,0,5.68-9.47,18.94-9.47s18.94,11.37,18.94,11.37s-7.58,5.68-20.84,5.68
				S268.94,205.48,268.94,205.48z"/>
			<path class="st5" d="M297.51,211.52c1.1-1.75,1.75-3.81,1.75-6.03c0-3.03-1.2-5.78-3.13-7.82c-2.33-0.99-5.06-1.65-8.24-1.65
				c-3,0-5.59,0.5-7.83,1.25c-2.17,2.07-3.54,4.99-3.54,8.22c0,2.49,0.81,4.78,2.17,6.66c2.04,0.56,4.44,0.92,7.31,0.92
				C290.53,213.06,294.38,212.39,297.51,211.52z"/>
			<circle class="st0" cx="287.89" cy="205.48" r="1.89"/>
			<path class="st8" d="M268.94,205.48c0,0,5.68-11.37,17.05-11.37c11.37,0,17.05,3.79,20.84,13.26c0,0-5.68-11.37-20.84-11.37
				C276.52,196.01,268.94,205.48,268.94,205.48z"/>
		</g>
		<g>
			<path class="st5" d="M323.3,237.52c0,0-7,34.26-52.46,36.16v3.79c0,0,41.67,1.89,54.93-37.89L323.3,237.52z"/>
			<ellipse class="st5" cx="260.42" cy="275.57" rx="14.21" ry="5.68"/>
		</g>
		<g>
			<defs>
				<circle id="SVGID_1_" cx="250" cy="250.95" r="233"/>
			</defs>
			<clipPath id="SVGID_2_">
				<use xlink:href="#SVGID_1_"  style="overflow:visible;"/>
			</clipPath>
			<g class="st11">
				<path class="st12" d="M187.49,338.09l13.26-7.58l51.15,87.14l53.04-87.14c0,0,13.26,3.79,11.37,5.68
					c-1.89,1.89-18.94,164.8-18.94,164.8l-89.03-5.68L187.49,338.09z"/>
				<path class="st13" d="M130.66,383.55c0,0-30.31,13.26-37.89,30.31l-7.58,22.73l68.2,53.04l9.47-32.2l1.89-58.72L130.66,383.55z"
					/>
				<path class="st14" d="M195.62,400.47l48.2,19.31c0,0-11.37,5.68-11.37,18.94s1.89,58.72,1.89,58.72l8.07-0.25l-2.39-58.48
					c0,0,2.88-16.31,11.86-21.41l-58.17-24.42L195.62,400.47z"/>
				<path class="st14" d="M251.89,423.33c0,0,58.72-30.31,66.3-35.99v7.58L251.89,423.33z"/>
				<path class="st15" d="M187.49,338.09c0,0-51.15,32.2-56.83,47.36c0,0,9.47,15.15,28.41,17.05l3.79,3.79c0,0-32.2,0-28.41,13.26
					l15.15,68.2l58.72,7.58C208.33,495.31,191.28,383.55,187.49,338.09z"/>
				<path class="st13" d="M373.13,379.76c0,0,30.31,13.26,37.89,30.31l7.58,22.73l-68.2,53.04l-9.47-32.2l-1.89-58.72L373.13,379.76
					z"/>
				<path class="st15" d="M316.3,334.3c0,0,51.15,32.2,56.83,47.36c0,0-9.47,15.15-28.41,17.05l-3.79,3.79c0,0,32.2,0,28.41,13.26
					l-15.15,68.2l-58.72,7.58C295.46,491.52,312.51,379.76,316.3,334.3z"/>
				<circle class="st14" cx="255.68" cy="465" r="5.68"/>
			</g>
		</g>
	</g>
</g>
</svg>
